<svg width="40" height="38" viewBox="0 0 40 38" fill="none" xmlns="http://www.w3.org/2000/svg">
<g id="metamask">
<path id="Vector" d="M38.0077 0.5625L22.3999 12.1547L25.2862 5.31544L38.0077 0.5625Z" fill="#E2761B" stroke="#E2761B" stroke-width="0.3125" stroke-linecap="round" stroke-linejoin="round"/>
<g id="Group">
<path id="Vector_2" d="M1.97656 0.5625L17.4589 12.2645L14.7138 5.31544L1.97656 0.5625Z" fill="#E4761B" stroke="#E4761B" stroke-width="0.3125" stroke-linecap="round" stroke-linejoin="round"/>
<path id="Vector_3" d="M32.3922 27.4331L28.2354 33.8017L37.1295 36.2488L39.6863 27.5743L32.3922 27.4331Z" fill="#E4761B" stroke="#E4761B" stroke-width="0.3125" stroke-linecap="round" stroke-linejoin="round"/>
<path id="Vector_4" d="M0.32959 27.5743L2.87077 36.2488L11.7649 33.8017L7.60802 27.4331L0.32959 27.5743Z" fill="#E4761B" stroke="#E4761B" stroke-width="0.3125" stroke-linecap="round" stroke-linejoin="round"/>
<path id="Vector_5" d="M11.2631 16.6723L8.78467 20.4213L17.616 20.8135L17.3023 11.3233L11.2631 16.6723Z" fill="#E4761B" stroke="#E4761B" stroke-width="0.3125" stroke-linecap="round" stroke-linejoin="round"/>
<path id="Vector_6" d="M28.722 16.6723L22.6043 11.2135L22.4004 20.8135L31.2161 20.4213L28.722 16.6723Z" fill="#E4761B" stroke="#E4761B" stroke-width="0.3125" stroke-linecap="round" stroke-linejoin="round"/>
<path id="Vector_7" d="M11.7646 33.8017L17.0666 31.2135L12.4862 27.637L11.7646 33.8017Z" fill="#E4761B" stroke="#E4761B" stroke-width="0.3125" stroke-linecap="round" stroke-linejoin="round"/>
<path id="Vector_8" d="M22.918 31.2135L28.2356 33.8017L27.4984 27.637L22.918 31.2135Z" fill="#E4761B" stroke="#E4761B" stroke-width="0.3125" stroke-linecap="round" stroke-linejoin="round"/>
</g>
<g id="Group_2">
<path id="Vector_9" d="M28.2351 33.8017L22.9175 31.2135L23.341 34.6802L23.294 36.139L28.2351 33.8017Z" fill="#D7C1B3" stroke="#D7C1B3" stroke-width="0.3125" stroke-linecap="round" stroke-linejoin="round"/>
<path id="Vector_10" d="M11.7646 33.8017L16.7058 36.139L16.6745 34.6802L17.0666 31.2135L11.7646 33.8017Z" fill="#D7C1B3" stroke="#D7C1B3" stroke-width="0.3125" stroke-linecap="round" stroke-linejoin="round"/>
</g>
<path id="Vector_11" d="M16.7844 25.3468L12.3608 24.0449L15.4824 22.6174L16.7844 25.3468Z" fill="#233447" stroke="#233447" stroke-width="0.3125" stroke-linecap="round" stroke-linejoin="round"/>
<path id="Vector_12" d="M23.2002 25.3468L24.5022 22.6174L27.6394 24.0449L23.2002 25.3468Z" fill="#233447" stroke="#233447" stroke-width="0.3125" stroke-linecap="round" stroke-linejoin="round"/>
<g id="Group_3">
<path id="Vector_13" d="M11.7648 33.8017L12.5177 27.4331L7.60791 27.5743L11.7648 33.8017Z" fill="#CD6116" stroke="#CD6116" stroke-width="0.3125" stroke-linecap="round" stroke-linejoin="round"/>
<path id="Vector_14" d="M27.4824 27.4331L28.2354 33.8017L32.3922 27.5743L27.4824 27.4331Z" fill="#CD6116" stroke="#CD6116" stroke-width="0.3125" stroke-linecap="round" stroke-linejoin="round"/>
<path id="Vector_15" d="M31.2156 20.4213L22.3999 20.8135L23.2156 25.3468L24.5175 22.6174L27.6548 24.0449L31.2156 20.4213Z" fill="#CD6116" stroke="#CD6116" stroke-width="0.3125" stroke-linecap="round" stroke-linejoin="round"/>
<path id="Vector_16" d="M12.3606 24.0449L15.4979 22.6174L16.7842 25.3468L17.6156 20.8135L8.78418 20.4213L12.3606 24.0449Z" fill="#CD6116" stroke="#CD6116" stroke-width="0.3125" stroke-linecap="round" stroke-linejoin="round"/>
</g>
<g id="Group_4">
<path id="Vector_17" d="M8.78418 20.4213L12.4861 27.637L12.3606 24.0449L8.78418 20.4213Z" fill="#E4751F" stroke="#E4751F" stroke-width="0.3125" stroke-linecap="round" stroke-linejoin="round"/>
<path id="Vector_18" d="M27.6549 24.0449L27.498 27.637L31.2157 20.4213L27.6549 24.0449Z" fill="#E4751F" stroke="#E4751F" stroke-width="0.3125" stroke-linecap="round" stroke-linejoin="round"/>
<path id="Vector_19" d="M17.6156 20.8135L16.7842 25.3468L17.8195 30.6958L18.0548 23.6527L17.6156 20.8135Z" fill="#E4751F" stroke="#E4751F" stroke-width="0.3125" stroke-linecap="round" stroke-linejoin="round"/>
<path id="Vector_20" d="M22.4001 20.8135L21.9766 23.637L22.1648 30.6958L23.2158 25.3468L22.4001 20.8135Z" fill="#E4751F" stroke="#E4751F" stroke-width="0.3125" stroke-linecap="round" stroke-linejoin="round"/>
</g>
<path id="Vector_21" d="M23.2155 25.3468L22.1646 30.6958L22.9175 31.2135L27.4979 27.637L27.6547 24.0449L23.2155 25.3468Z" fill="#F6851B" stroke="#F6851B" stroke-width="0.3125" stroke-linecap="round" stroke-linejoin="round"/>
<path id="Vector_22" d="M12.3608 24.0449L12.4863 27.637L17.0667 31.2135L17.8197 30.6958L16.7844 25.3468L12.3608 24.0449Z" fill="#F6851B" stroke="#F6851B" stroke-width="0.3125" stroke-linecap="round" stroke-linejoin="round"/>
<path id="Vector_23" d="M23.2941 36.139L23.3411 34.6801L22.949 34.335H17.0352L16.6745 34.6801L16.7058 36.139L11.7646 33.8017L13.4901 35.2135L16.9882 37.6448H22.996L26.5097 35.2135L28.2352 33.8017L23.2941 36.139Z" fill="#C0AD9E" stroke="#C0AD9E" stroke-width="0.3125" stroke-linecap="round" stroke-linejoin="round"/>
<path id="Vector_24" d="M22.9175 31.2135L22.1645 30.6959H17.8194L17.0665 31.2135L16.6743 34.6802L17.0351 34.3351H22.9488L23.341 34.6802L22.9175 31.2135Z" fill="#161616" stroke="#161616" stroke-width="0.3125" stroke-linecap="round" stroke-linejoin="round"/>
<g id="Group_5">
<path id="Vector_25" d="M38.6665 12.9076L39.9998 6.5076L38.0077 0.5625L22.9175 11.7625L28.7214 16.6723L36.9253 19.0723L38.7449 16.9547L37.9606 16.39L39.2155 15.2449L38.243 14.4919L39.4979 13.5351L38.6665 12.9076Z" fill="#763D16" stroke="#763D16" stroke-width="0.3125" stroke-linecap="round" stroke-linejoin="round"/>
<path id="Vector_26" d="M0 6.5076L1.33333 12.9076L0.486275 13.5351L1.74118 14.4919L0.784314 15.2449L2.03922 16.39L1.2549 16.9547L3.05882 19.0723L11.2627 16.6723L17.0667 11.7625L1.97647 0.5625L0 6.5076Z" fill="#763D16" stroke="#763D16" stroke-width="0.3125" stroke-linecap="round" stroke-linejoin="round"/>
</g>
<path id="Vector_27" d="M36.9255 19.0723L28.7216 16.6723L31.2157 20.4213L27.498 27.637L32.3922 27.5743H39.6863L36.9255 19.0723Z" fill="#F6851B" stroke="#F6851B" stroke-width="0.3125" stroke-linecap="round" stroke-linejoin="round"/>
<path id="Vector_28" d="M11.2629 16.6723L3.059 19.0723L0.32959 27.5743H7.60802L12.4865 27.637L8.78449 20.4213L11.2629 16.6723Z" fill="#F6851B" stroke="#F6851B" stroke-width="0.3125" stroke-linecap="round" stroke-linejoin="round"/>
<path id="Vector_29" d="M22.4001 20.8135L22.9178 11.7625L25.3021 5.31543H14.7139L17.0668 11.7625L17.6158 20.8135L17.8041 23.6684L17.8197 30.6958H22.1648L22.1962 23.6684L22.4001 20.8135Z" fill="#F6851B" stroke="#F6851B" stroke-width="0.3125" stroke-linecap="round" stroke-linejoin="round"/>
</g>
</svg>
